<svg width="40" height="40" viewBox="0 0 40 40" fill="none" xmlns="http://www.w3.org/2000/svg">
<path d="M16.5455 3.71476C19.1337 3.13613 21.8459 3.60939 24.0852 5.03043C26.3245 6.45147 27.9076 8.70388 28.4863 11.2922L28.8499 12.9187L35.356 11.4642L36.0832 14.7172L34.185 15.1416L36.2565 30.1905C36.3135 30.6045 36.2129 31.0248 35.9746 31.3682C35.7363 31.7115 35.3777 31.9528 34.9699 32.0442L11.9384 37.193C11.5305 37.284 11.1034 37.2184 10.7415 37.0092C10.3797 36.8 10.1097 36.4625 9.985 36.0637L5.44935 21.5656L3.55283 21.9896L2.8256 18.7366L9.33167 17.2821L8.96805 15.6556C8.38943 13.0673 8.86269 10.3552 10.2837 8.11583C11.7048 5.8765 13.9572 4.29338 16.5455 3.71476ZM22.1718 21.2428L18.9187 21.9701L20.3732 28.4761L23.6262 27.7489L22.1718 21.2428ZM15.6657 22.6973L12.4127 23.4245L13.8671 29.9306L17.1202 29.2034L15.6657 22.6973ZM28.6778 19.7884L25.4248 20.5156L26.8793 27.0217L30.1323 26.2944L28.6778 19.7884ZM17.2727 6.96779C15.6035 7.34095 14.1416 8.34139 13.1893 9.76219C12.237 11.183 11.8673 12.9154 12.1565 14.6012L12.2211 14.9283L12.5847 16.5549L25.5968 13.6459L25.2332 12.0194C24.8601 10.3502 23.8596 8.88826 22.4388 7.936C21.018 6.98373 19.2856 6.61397 17.5998 6.9032L17.2727 6.96779Z" fill="white"/>
</svg>
