<svg width="16" height="16" viewBox="0 0 16 16" fill="none" xmlns="http://www.w3.org/2000/svg">
<path d="M7.99998 1.33333C9.06085 1.33333 10.0783 1.75476 10.8284 2.5049C11.5786 3.25505 12 4.27246 12 5.33333V6H14.6666V7.33333H13.8886L13.384 13.3887C13.3701 13.5553 13.2941 13.7106 13.1712 13.8238C13.0482 13.937 12.8871 13.9999 12.72 14H3.27998C3.11281 13.9999 2.95178 13.937 2.82879 13.8238C2.70581 13.7106 2.62985 13.5553 2.61598 13.3887L2.11065 7.33333H1.33331V6H3.99998V5.33333C3.99998 4.27246 4.42141 3.25505 5.17155 2.5049C5.9217 1.75476 6.93911 1.33333 7.99998 1.33333ZM8.66665 8.66666H7.33331V11.3333H8.66665V8.66666ZM5.99998 8.66666H4.66665V11.3333H5.99998V8.66666ZM11.3333 8.66666H9.99998V11.3333H11.3333V8.66666ZM7.99998 2.66666C7.31582 2.66666 6.65783 2.92962 6.1621 3.40114C5.66638 3.87267 5.37085 4.51669 5.33665 5.2L5.33331 5.33333V6H10.6666V5.33333C10.6666 4.64917 10.4037 3.99118 9.93216 3.49545C9.46064 2.99973 8.81662 2.7042 8.13331 2.67L7.99998 2.66666Z" fill="white"/>
</svg>
