<svg width="25" height="24" viewBox="0 0 25 24" fill="none" xmlns="http://www.w3.org/2000/svg">
<path d="M10.2002 13.25C10.6144 13.25 10.9502 13.5858 10.9502 14V16C10.9502 16.4142 10.6144 16.75 10.2002 16.75C9.78598 16.75 9.4502 16.4142 9.4502 16V14C9.4502 13.5858 9.78598 13.25 10.2002 13.25Z" fill="#1C1C1C"/>
<path d="M14.9502 14C14.9502 13.5858 14.6144 13.25 14.2002 13.25C13.786 13.25 13.4502 13.5858 13.4502 14V16C13.4502 16.4142 13.786 16.75 14.2002 16.75C14.6144 16.75 14.9502 16.4142 14.9502 16V14Z" fill="#1C1C1C"/>
<path fill-rule="evenodd" clip-rule="evenodd" d="M9.84971 3.375C10.0568 3.01628 9.93391 2.55759 9.57519 2.35048C9.21647 2.14338 8.75778 2.26628 8.55067 2.625L6.55067 6.0891C6.52071 6.141 6.49766 6.19499 6.48122 6.25H6.2002C4.68141 6.25 3.4502 7.48122 3.4502 9C3.4502 9.85913 3.84416 10.6262 4.46129 11.1305L5.12823 15.7152L5.57497 17.8084C5.84264 19.0625 6.86643 20.0151 8.13656 20.1918C10.8327 20.567 13.5677 20.567 16.2638 20.1918C17.534 20.0151 18.5578 19.0625 18.8254 17.8084L19.2722 15.7152L19.9391 11.1305C20.5562 10.6262 20.9502 9.85913 20.9502 9C20.9502 7.48122 19.719 6.25 18.2002 6.25H17.9192C17.9027 6.19499 17.8797 6.141 17.8497 6.0891L15.8497 2.625C15.6426 2.26628 15.1839 2.14338 14.8252 2.35048C14.4665 2.55759 14.3436 3.01628 14.5507 3.375L16.2106 6.25H8.18983L9.84971 3.375ZM18.3337 11.7468C18.2894 11.7489 18.2449 11.75 18.2002 11.75H6.2002C6.15545 11.75 6.11095 11.7489 6.06673 11.7468L6.6055 15.4504L7.04193 17.4953C7.17791 18.1324 7.69802 18.6163 8.34328 18.7061C10.9022 19.0622 13.4982 19.0622 16.0571 18.7061C16.7024 18.6163 17.2225 18.1324 17.3585 17.4953L17.7949 15.4504L18.3337 11.7468ZM4.9502 9C4.9502 8.30965 5.50984 7.75 6.2002 7.75H18.2002C18.8906 7.75 19.4502 8.30965 19.4502 9C19.4502 9.69036 18.8906 10.25 18.2002 10.25H6.2002C5.50984 10.25 4.9502 9.69036 4.9502 9Z" fill="#1C1C1C"/>
</svg>
